<svg class="ch" viewBox="0 0 620 118" width="620" height="118"><line x1="40" y1="54.0" x2="614" y2="54.0" stroke="#CFD5DA" stroke-width="1"/><text x="34" y="57.5" text-anchor="end" font-size="9" fill="#8A939C" font-family="IBM Plex Mono, monospace">0</text><rect x="55.8" y="34.1" width="40.2" height="19.9" fill="#1C6B58" rx="1"/><text x="75.9" y="113" text-anchor="middle" font-size="9" fill="#8A939C" font-family="Inter, sans-serif">W1</text><rect x="127.5" y="40.2" width="40.2" height="13.8" fill="#1C6B58" rx="1"/><text x="147.6" y="113" text-anchor="middle" font-size="9" fill="#8A939C" font-family="Inter, sans-serif">W2</text><rect x="199.3" y="54.0" width="40.2" height="12.3" fill="#7F1D1A" rx="1"/><text x="219.4" y="113" text-anchor="middle" font-size="9" fill="#8A939C" font-family="Inter, sans-serif">W3</text><rect x="271.0" y="12.6" width="40.2" height="41.4" fill="#1C6B58" rx="1"/><text x="291.1" y="113" text-anchor="middle" font-size="9" fill="#8A939C" font-family="Inter, sans-serif">W4</text><rect x="342.8" y="54.0" width="40.2" height="9.2" fill="#7F1D1A" rx="1"/><text x="362.9" y="113" text-anchor="middle" font-size="9" fill="#8A939C" font-family="Inter, sans-serif">W5</text><rect x="414.5" y="54.0" width="40.2" height="18.4" fill="#7F1D1A" rx="1"/><text x="434.6" y="113" text-anchor="middle" font-size="9" fill="#8A939C" font-family="Inter, sans-serif">W6</text><rect x="486.3" y="54.0" width="40.2" height="24.5" fill="#7F1D1A" rx="1"/><text x="506.4" y="113" text-anchor="middle" font-size="9" fill="#8A939C" font-family="Inter, sans-serif">W7</text><rect x="558.0" y="54.0" width="40.2" height="36.8" fill="#7F1D1A" rx="1"/><text x="578.1" y="113" text-anchor="middle" font-size="9" fill="#8A939C" font-family="Inter, sans-serif">W8</text></svg>